<?xml version="1.0" encoding="UTF-8" standalone="no"?><!DOCTYPE svg PUBLIC "-//W3C//DTD SVG 1.1//EN" "http://www.w3.org/Graphics/SVG/1.1/DTD/svg11.dtd"><svg width="100%" height="100%" viewBox="0 0 1000 1000" version="1.1" xmlns="http://www.w3.org/2000/svg" xmlns:xlink="http://www.w3.org/1999/xlink" xml:space="preserve" xmlns:serif="http://www.serif.com/" style="fill-rule:evenodd;clip-rule:evenodd;stroke-linejoin:round;stroke-miterlimit:2;"><path d="M439.993,708.41c-24.818,38.844 -13.423,90.397 25.421,115.161c38.788,24.818 90.342,13.421 115.16,-25.367l99.106,-155.207l-96.258,-159.153l-143.429,224.566Z" style="fill:#b8d445;fill-rule:nonzero;"/><path d="M683.543,327.118l96.259,159.097l66.017,109.134l71.222,-111.488l82.959,137.163l0,42.808l-85.808,134.334c-15.505,24.325 -42.897,39.227 -71.278,38.514c-28.817,-0.329 -55.442,-15.559 -70.344,-40.212l-92.861,-153.455l-96.306,-159.138l-66.025,-109.094l-270.422,423.385c-24.818,38.843 -76.372,50.239 -115.16,25.42c-38.844,-24.763 -50.239,-76.371 -25.421,-115.16l342.63,-536.516c15.504,-24.271 42.898,-39.281 71.331,-38.515c28.817,0.384 55.389,15.56 70.346,40.214l92.861,153.509Z" style="fill:#07201e;fill-rule:nonzero;"/><path d="M1000,298.816l0,322.256l-82.974,-137.189l-0.008,0.01l-66.016,-109.134l-71.2,111.456l-0.022,0.034l-96.258,-159.154l99.106,-155.152c15.504,-24.326 42.46,-39.282 71.277,-38.515c28.817,0.329 55.444,15.559 70.345,40.214l75.75,125.174Z" style="fill:#b8d445;fill-rule:nonzero;"/></svg>