<?xml version="1.0" encoding="UTF-8" standalone="no"?>
<!DOCTYPE svg PUBLIC "-//W3C//DTD SVG 1.1//EN" "http://www.w3.org/Graphics/SVG/1.1/DTD/svg11.dtd">
<svg width="100%" height="100%" viewBox="0 0 128 128" version="1.1" xmlns="http://www.w3.org/2000/svg" xmlns:xlink="http://www.w3.org/1999/xlink" xml:space="preserve" xmlns:serif="http://www.serif.com/" style="fill-rule:evenodd;clip-rule:evenodd;stroke-linejoin:round;stroke-miterlimit:2;">
    <rect id="Artboard1" x="0" y="0" width="128" height="128" style="fill:none;"/>
    <g id="Artboard11" serif:id="Artboard1">
        <g>
            <g transform="matrix(0.99951,0,0,0.99951,36.6787,73.3862)">
                <path d="M0,5.725C-1.68,8.354 -0.908,11.842 1.721,13.519C4.345,15.199 7.835,14.427 9.513,11.801L16.221,1.298L9.707,-9.474L0,5.725Z" style="fill:rgb(164,205,58);fill-rule:nonzero;"/>
            </g>
            <g transform="matrix(0.99951,0,0,0.99951,64.1302,57.2774)">
                <path d="M0,14.19L-4.468,6.805L-10.982,-3.963L-17.267,-14.352C-18.279,-16.02 -20.077,-17.048 -22.028,-17.073C-23.952,-17.126 -25.806,-16.109 -26.855,-14.467L-50.044,21.842C-51.722,24.468 -50.952,27.961 -48.323,29.636C-45.697,31.316 -42.209,30.544 -40.529,27.915L-22.228,-0.738L-17.76,6.645L-11.242,17.416L-4.957,27.801C-3.948,29.469 -2.147,30.5 -0.196,30.522C1.724,30.57 3.578,29.561 4.628,27.915L11.334,17.416L4.82,6.645L0,14.19Z" style="fill:white;fill-rule:nonzero;"/>
            </g>
            <g transform="matrix(0.99951,0,0,0.99951,113.962,48.7254)">
                <path d="M0,30.514L-21.968,-5.796C-22.977,-7.464 -24.778,-8.492 -26.729,-8.517C-28.653,-8.569 -30.503,-7.553 -31.553,-5.911L-38.263,4.594L-31.746,15.364L-26.925,7.819L-9.658,36.357C-8.598,38.11 -6.734,39.083 -4.824,39.083C-3.83,39.083 -2.822,38.819 -1.905,38.267C0.76,36.65 1.612,33.179 0,30.514" style="fill:white;fill-rule:nonzero;"/>
            </g>
            <path d="M74.101,72.443L68.947,63.921L64.481,56.539L59.663,64.08L53.152,53.315L59.855,42.821C60.905,41.176 62.729,40.162 64.677,40.215C66.627,40.237 68.427,41.267 69.435,42.935L75.717,53.315L75.716,53.318L81.144,62.283L82.232,64.08L91.393,79.226C93.006,81.889 92.153,85.359 89.489,86.97C88.573,87.524 87.566,87.785 86.572,87.785C84.665,87.785 82.8,86.819 81.74,85.066L75.458,74.685L74.101,72.443Z" style="fill:rgb(164,205,58);"/>
        </g>
    </g>
</svg>
